<?xml version="1.0" standalone="no"?>
<!DOCTYPE svg PUBLIC "-//W3C//DTD SVG 20010904//EN"
 "http://www.w3.org/TR/2001/REC-SVG-20010904/DTD/svg10.dtd">
<svg version="1.0" xmlns="http://www.w3.org/2000/svg"
 width="992.000000pt" height="755.000000pt" viewBox="0 0 992.000000 755.000000"
 preserveAspectRatio="xMidYMid meet">

<g transform="translate(0.000000,755.000000) scale(0.100000,-0.100000)"
fill="#000000" stroke="none">
<path d="M3780 7046 c-434 -57 -848 -227 -1250 -513 -105 -75 -438 -362 -449
-387 -2 -5 -33 -41 -69 -80 -60 -65 -123 -140 -179 -212 -131 -168 -191 -247
-223 -294 -40 -60 -67 -100 -160 -230 -64 -90 -106 -151 -217 -316 -37 -56
-72 -109 -78 -117 -32 -47 -118 -180 -170 -263 -101 -159 -294 -456 -336 -514
-21 -30 -71 -104 -109 -165 -39 -60 -91 -139 -116 -175 l-46 -65 54 -23 c393
-174 800 -207 1098 -90 90 35 165 76 217 117 18 14 46 37 63 50 34 25 140 150
211 246 24 34 50 67 57 75 6 8 54 71 106 140 52 69 105 138 118 153 13 16 30
40 38 53 8 12 48 67 89 121 41 54 102 134 134 178 33 44 72 96 87 115 15 19
94 124 175 234 84 113 192 243 249 302 103 105 232 214 253 214 7 0 16 6 20
13 38 60 358 198 541 233 104 20 466 19 564 -1 197 -41 407 -130 572 -241 48
-33 98 -66 111 -74 60 -39 263 -180 335 -234 30 -23 100 -72 155 -109 55 -37
161 -110 235 -162 74 -52 164 -115 200 -139 36 -25 117 -81 180 -125 115 -81
283 -197 330 -228 84 -56 204 -149 229 -179 81 -92 94 -191 31 -247 -32 -28
-34 -29 -129 -25 -99 4 -117 11 -215 78 -12 8 -36 24 -54 35 -46 28 -464 321
-588 412 -50 37 -140 102 -329 237 -95 68 -160 115 -249 181 -214 157 -410
292 -438 300 -13 4 -30 13 -38 20 -34 30 -247 102 -370 126 -83 16 -326 16
-410 0 -95 -19 -245 -68 -325 -108 -149 -75 -342 -220 -320 -241 13 -12 229
-171 329 -242 43 -30 118 -84 168 -120 49 -36 111 -81 139 -100 44 -31 178
-128 455 -330 75 -55 125 -90 219 -155 28 -19 100 -70 160 -114 61 -45 142
-103 180 -131 39 -28 124 -90 190 -138 66 -48 134 -96 150 -106 27 -18 101
-71 305 -221 221 -161 403 -284 512 -344 83 -45 256 -105 366 -127 100 -19
347 -18 452 2 149 28 296 87 427 170 250 160 429 361 531 597 65 147 86 253
86 427 1 228 -32 343 -149 525 -75 116 -154 193 -360 351 -23 18 -250 172
-330 224 -54 35 -222 150 -312 213 -26 18 -97 67 -157 108 -60 41 -141 96
-180 123 -85 59 -304 207 -430 293 -50 34 -122 83 -161 110 -38 27 -135 93
-215 148 -80 55 -185 128 -235 162 -49 35 -126 87 -170 117 -44 30 -106 72
-137 94 -31 21 -71 49 -90 60 -18 12 -42 27 -53 34 -202 130 -423 220 -665
269 -178 37 -439 47 -610 25z"/>
<path d="M3055 4373 c-255 -16 -465 -67 -645 -158 -82 -41 -272 -187 -334
-256 -42 -47 -98 -140 -166 -277 -37 -74 -58 -187 -66 -355 -15 -297 50 -518
209 -707 78 -93 153 -156 357 -301 89 -63 180 -128 203 -145 23 -16 128 -88
232 -159 105 -71 251 -170 325 -220 74 -51 198 -135 275 -187 145 -98 219
-149 390 -269 55 -38 141 -97 190 -131 50 -34 140 -96 200 -138 285 -199 629
-422 765 -497 148 -82 347 -150 555 -189 141 -28 472 -25 630 5 191 35 305 66
470 127 137 50 128 46 113 56 -9 6 -6 7 9 3 37 -10 332 141 523 268 240 160
514 422 746 712 143 178 226 294 219 305 -4 6 -1 9 5 8 20 -5 228 297 752
1092 242 367 351 535 429 663 l53 89 -24 19 c-14 10 -30 19 -35 19 -6 0 -42
13 -80 29 -79 33 -269 83 -390 102 -105 17 -353 17 -430 1 -153 -33 -220 -61
-338 -140 -64 -43 -145 -105 -180 -138 -38 -35 -152 -176 -282 -349 -120 -159
-229 -302 -243 -317 -14 -15 -42 -52 -61 -82 -121 -185 -560 -744 -657 -838
-250 -243 -562 -405 -859 -448 -110 -15 -344 -12 -433 6 -152 31 -292 80 -446
156 -177 87 -168 81 -786 513 -52 36 -132 92 -177 123 -46 31 -189 131 -318
222 -130 91 -311 216 -403 278 -193 131 -260 186 -303 248 -25 37 -30 54 -30
106 -1 55 2 64 30 92 29 29 34 30 114 30 108 -1 152 -21 323 -145 126 -91 299
-214 414 -294 31 -22 90 -64 131 -93 41 -29 182 -130 314 -223 132 -94 258
-184 280 -201 409 -305 597 -402 847 -439 121 -18 383 -7 482 21 235 64 434
183 524 316 20 30 20 32 4 46 -14 13 -399 291 -577 417 -28 20 -104 74 -169
121 -65 47 -128 92 -140 100 -42 29 -322 231 -416 300 -96 70 -158 115 -438
316 -84 60 -184 132 -222 159 -288 209 -412 295 -422 289 -6 -4 -8 -3 -5 4 4
5 -16 27 -45 48 -29 21 -75 54 -103 75 -151 112 -381 187 -640 209 -116 9
-144 10 -250 3z"/>
</g>
</svg>
