<?xml version="1.0" standalone="no"?>
<!DOCTYPE svg PUBLIC "-//W3C//DTD SVG 20010904//EN"
 "http://www.w3.org/TR/2001/REC-SVG-20010904/DTD/svg10.dtd">
<svg version="1.0" xmlns="http://www.w3.org/2000/svg"
 width="930.000000pt" height="213.000000pt" viewBox="0 0 930.000000 213.000000"
 preserveAspectRatio="xMidYMid meet">

<g transform="translate(0.000000,213.000000) scale(0.100000,-0.100000)"
fill="#000000" stroke="none">
<path d="M814 1781 c-55 -25 -111 -76 -137 -125 -21 -39 -22 -55 -25 -328 l-3
-288 104 0 104 0 6 266 c4 178 10 271 18 280 6 8 29 14 50 14 32 0 40 -4 45
-24 10 -41 0 -70 -28 -84 -28 -13 -28 -15 -28 -104 l0 -91 65 6 c100 10 158
48 196 132 27 59 25 156 -5 220 -25 55 -81 110 -132 131 -49 21 -180 18 -230
-5z"/>
<path d="M3830 1779 c-55 -25 -105 -71 -133 -124 -21 -38 -22 -55 -25 -332
l-3 -293 93 0 c60 0 98 4 106 12 9 9 12 83 12 273 0 190 3 264 12 273 16 16
80 16 96 0 7 -7 12 -27 12 -45 0 -27 -6 -37 -30 -51 -30 -17 -30 -18 -30 -104
l0 -88 38 0 c91 1 175 48 214 123 17 32 22 59 22 117 0 119 -53 201 -157 245
-54 22 -171 19 -227 -6z"/>
<path d="M5735 1781 c-42 -19 -94 -71 -119 -119 -38 -73 -29 -180 24 -284 50
-98 34 -148 -48 -148 l-42 0 0 -99 c0 -94 1 -99 23 -105 37 -10 127 -7 170 6
60 18 132 93 151 158 27 90 20 134 -35 241 -37 73 -38 120 -3 148 15 12 38 21
52 21 23 0 24 3 18 38 -3 20 -6 65 -6 100 l0 62 -72 0 c-49 0 -86 -6 -113 -19z"/>
<path d="M6289 1785 c-68 -25 -120 -56 -113 -67 4 -6 3 -8 -3 -5 -16 10 -92
-78 -121 -141 -23 -50 -26 -70 -27 -162 0 -93 3 -112 26 -160 38 -82 116 -161
191 -196 57 -26 73 -29 173 -29 98 0 116 3 167 27 154 72 246 245 219 414 -24
156 -129 282 -267 322 -54 16 -199 14 -245 -3z m241 -240 c93 -94 71 -242 -44
-302 -42 -22 -133 -14 -174 16 -68 48 -93 161 -53 239 36 68 82 93 169 89 58
-3 66 -6 102 -42z"/>
<path d="M7080 1784 c-58 -25 -99 -63 -128 -117 l-27 -52 -3 -292 -4 -293 75
0 c41 0 89 3 106 6 l31 7 1 216 c1 119 4 241 7 271 7 54 7 55 43 58 63 5 64 1
67 -295 l3 -264 102 3 102 3 0 290 0 290 -28 58 c-30 60 -70 97 -126 116 -48
16 -179 13 -221 -5z"/>
<path d="M7766 1785 c-73 -26 -123 -78 -148 -154 -12 -38 -24 -535 -14 -577 6
-23 10 -24 106 -24 l99 0 3 93 3 92 33 3 32 3 0 89 0 89 -32 3 -33 3 2 78 c2
88 12 107 57 107 53 0 56 -10 56 -170 0 -81 3 -202 7 -268 l6 -122 83 0 c45 0
89 3 98 6 14 5 16 40 16 283 0 304 -7 352 -57 412 -43 50 -95 69 -193 68 -47
0 -103 -6 -124 -14z"/>
<path d="M1447 1776 c-51 -14 -98 -52 -125 -101 -15 -26 -17 -65 -17 -267 l0
-236 30 -44 c18 -25 49 -52 75 -65 39 -20 59 -23 177 -23 l133 0 0 94 0 93
-102 9 c-103 9 -103 9 -106 37 -5 45 11 54 108 62 l90 7 0 68 0 68 -87 8 -88
9 -3 34 c-2 20 2 37 9 42 7 4 50 11 96 14 l83 7 0 99 0 99 -112 -1 c-62 0
-135 -6 -161 -13z"/>
<path d="M1876 1419 c-4 -204 -6 -373 -4 -375 3 -2 50 -7 106 -10 l102 -7 0
375 c0 334 -2 377 -16 382 -9 3 -53 6 -98 6 l-83 0 -7 -371z"/>
<path d="M2249 1615 c50 -96 91 -187 91 -202 0 -15 -35 -92 -79 -172 -43 -80
-86 -161 -95 -178 l-17 -33 107 0 106 0 41 90 c23 50 45 90 49 90 4 0 28 -40
53 -90 l45 -90 111 0 c61 0 109 3 107 8 -12 27 -141 275 -162 312 -14 25 -26
55 -26 66 0 12 41 98 90 192 50 93 90 173 90 176 0 3 -46 6 -103 6 l-103 0
-34 -80 c-19 -44 -40 -80 -47 -80 -7 0 -31 36 -53 80 l-40 80 -111 0 -111 0
91 -175z"/>
<path d="M3000 1783 c-85 -14 -149 -68 -169 -140 -6 -21 -11 -126 -11 -233 0
-107 5 -212 11 -233 14 -52 69 -111 117 -125 22 -7 96 -12 166 -12 l126 0 0
93 0 94 -102 9 -103 9 -3 34 c-2 19 2 37 9 41 6 4 49 11 95 15 l84 7 0 68 0
68 -82 8 -83 9 0 40 0 40 93 9 92 9 0 98 0 99 -107 -1 c-60 -1 -119 -4 -133
-6z"/>
<path d="M4500 1781 c-85 -13 -148 -65 -171 -139 -7 -24 -9 -112 -7 -252 3
-177 7 -220 21 -246 45 -82 106 -106 270 -108 l122 -1 3 96 3 96 -97 5 c-105
6 -131 20 -118 62 10 31 22 36 99 36 39 0 75 4 81 8 7 4 14 36 15 72 l4 65
-78 6 c-83 7 -107 19 -107 54 0 37 26 48 116 53 l85 5 -3 96 -3 96 -95 1 c-52
1 -115 -1 -140 -5z"/>
<path d="M4890 1417 c0 -333 2 -376 16 -381 24 -9 182 -7 188 2 3 5 6 127 6
272 1 145 4 269 7 276 5 14 100 8 121 -8 6 -6 12 -28 12 -49 0 -40 -26 -69
-62 -69 -16 0 -18 -11 -18 -97 0 -94 2 -101 46 -203 26 -58 54 -111 62 -117
10 -9 50 -13 114 -13 54 0 98 1 98 3 0 4 -56 137 -80 192 -43 95 -43 113 -4
159 103 120 70 299 -68 370 -56 28 -62 29 -248 34 l-190 5 0 -376z"/>
<path d="M8294 1776 c-3 -7 -4 -139 -2 -293 3 -276 3 -279 29 -328 15 -30 42
-62 67 -79 35 -25 53 -30 122 -34 l81 -5 -3 99 -3 99 -28 3 c-54 6 -59 28 -65
302 l-5 250 -94 0 c-70 0 -95 -3 -99 -14z"/>
<path d="M1065 826 c-16 -8 -43 -28 -60 -45 -26 -29 -30 -40 -33 -108 -5 -95
9 -143 52 -181 65 -57 168 -51 225 13 17 20 31 42 31 50 0 26 -29 16 -45 -15
-44 -85 -183 -76 -221 15 -18 44 -18 136 0 179 20 49 61 76 112 76 54 0 88
-15 105 -46 7 -13 21 -24 32 -24 18 0 18 1 0 33 -35 59 -127 84 -198 53z"/>
<path d="M2145 769 c-7 -56 -9 -60 -29 -54 -62 21 -93 17 -127 -13 -33 -29
-34 -33 -34 -106 0 -69 2 -77 29 -105 24 -25 38 -31 72 -31 24 0 46 5 49 10 3
6 15 10 26 10 10 0 19 -4 19 -10 0 -5 5 -10 10 -10 6 0 10 68 10 185 0 184
-12 241 -25 124z m-30 -89 c10 -11 20 -42 23 -71 8 -89 -38 -144 -102 -119
-34 13 -46 39 -46 103 0 69 26 107 74 107 20 0 40 -8 51 -20z"/>
<path d="M2270 815 c0 -8 5 -15 10 -15 6 0 10 7 10 15 0 8 -4 15 -10 15 -5 0
-10 -7 -10 -15z"/>
<path d="M2660 815 c0 -8 7 -15 15 -15 8 0 15 7 15 15 0 8 -7 15 -15 15 -8 0
-15 -7 -15 -15z"/>
<path d="M5793 718 c4 -62 7 -146 7 -185 l0 -73 101 0 101 0 34 34 c44 44 45
82 3 130 l-31 36 21 29 c28 39 26 73 -5 110 l-26 31 -105 0 -106 0 6 -112z
m195 66 c14 -10 22 -26 22 -44 0 -47 -22 -60 -101 -60 l-69 0 0 60 0 60 63 0
c40 0 70 -5 85 -16z m6 -166 c29 -13 40 -39 32 -73 -9 -34 -31 -43 -111 -46
l-70 -3 -3 67 -3 67 65 0 c36 0 76 -5 90 -12z"/>
<path d="M7100 645 l0 -185 130 0 c72 0 130 4 130 9 0 5 -52 12 -115 16 l-115
7 0 68 0 67 46 7 c26 3 73 6 105 6 33 0 59 4 59 10 0 6 -17 10 -37 10 -21 0
-68 3 -105 7 l-68 6 0 63 0 62 110 7 c61 4 110 11 110 16 0 5 -56 9 -125 9
l-125 0 0 -185z"/>
<path d="M4745 771 c-4 -22 -14 -42 -22 -45 -15 -6 -15 -8 0 -19 12 -9 18 -41
24 -127 l8 -115 33 -3 c35 -4 44 13 12 23 -18 6 -20 15 -20 111 0 99 1 105 22
113 l23 8 -22 7 c-15 5 -23 18 -28 46 -9 51 -21 51 -30 1z"/>
<path d="M7730 788 c0 -13 -7 -35 -14 -50 -8 -15 -11 -30 -6 -33 4 -3 11 -49
15 -103 9 -138 10 -142 45 -142 34 0 40 15 10 25 -18 6 -20 15 -20 109 0 97 1
104 23 113 l22 10 -21 7 c-16 5 -23 18 -28 46 -7 43 -26 55 -26 18z"/>
<path d="M1415 721 c-47 -20 -60 -49 -60 -133 0 -75 2 -81 28 -104 23 -19 39
-24 86 -24 51 0 61 3 87 31 26 28 29 36 29 100 0 69 -1 71 -37 105 -39 35 -86
44 -133 25z m90 -27 c25 -10 45 -58 45 -109 0 -38 -5 -52 -30 -77 -26 -25 -36
-29 -62 -24 -43 8 -56 22 -69 68 -25 96 37 172 116 142z"/>
<path d="M1726 712 c-22 -13 -30 -14 -33 -4 -3 6 -9 12 -14 12 -5 0 -9 -58 -9
-130 0 -71 4 -130 9 -130 4 0 11 44 15 98 9 121 21 142 80 142 24 0 48 -6 54
-13 6 -6 14 -60 18 -120 3 -59 11 -107 15 -107 5 0 9 52 9 115 0 102 -2 117
-20 135 -25 25 -84 26 -124 2z"/>
<path d="M2429 715 c-37 -20 -52 -64 -47 -140 6 -89 29 -115 108 -115 46 0 61
4 78 23 23 24 30 57 12 57 -5 0 -15 -10 -21 -22 -7 -13 -17 -26 -23 -30 -14
-10 -78 -10 -92 0 -35 23 -46 129 -19 182 14 27 20 30 65 30 39 0 53 -4 62
-20 11 -17 38 -28 38 -16 0 53 -100 84 -161 51z"/>
<path d="M2819 716 c-69 -40 -78 -167 -17 -233 18 -19 32 -23 83 -23 53 0 65
4 86 26 20 21 24 38 27 98 4 69 2 75 -25 106 -24 27 -38 33 -79 36 -31 3 -58
-1 -75 -10z m120 -40 c49 -52 33 -164 -25 -186 -39 -15 -53 -12 -85 19 -24 24
-29 38 -29 76 0 48 20 99 42 108 33 14 75 6 97 -17z"/>
<path d="M3151 713 c-19 -13 -28 -14 -42 -5 -10 7 -21 12 -24 12 -3 0 -5 -58
-5 -130 0 -103 3 -130 14 -130 10 0 14 26 19 107 6 120 13 133 76 133 59 0 63
-7 69 -129 4 -84 8 -111 18 -111 11 0 14 24 14 110 0 104 -1 112 -25 135 -29
30 -79 33 -114 8z"/>
<path d="M3430 723 c-24 -9 -50 -35 -50 -50 0 -20 24 -16 38 7 11 18 21 21 70
18 57 -3 57 -3 60 -37 4 -41 -4 -47 -74 -56 -68 -8 -104 -36 -104 -79 0 -19 8
-40 18 -49 22 -20 98 -23 137 -5 19 9 28 9 37 0 7 -7 18 -12 26 -12 11 0 12
20 7 113 -9 139 -21 157 -99 156 -28 0 -58 -3 -66 -6z m120 -163 c0 -59 -68
-98 -121 -70 -21 12 -26 52 -6 68 11 9 82 28 115 31 7 1 12 -11 12 -29z"/>
<path d="M3747 713 c-14 -15 -21 -16 -37 -5 -20 12 -20 9 -20 -118 0 -71 4
-130 9 -130 4 0 11 44 15 97 8 120 21 143 76 143 21 0 41 -4 44 -9 3 -4 9 -58
12 -120 5 -76 11 -111 19 -111 8 0 14 34 18 106 4 59 12 113 18 120 12 15 94
19 103 6 2 -4 8 -58 12 -120 4 -62 11 -112 15 -112 5 0 9 54 9 119 0 113 -1
121 -22 135 -31 22 -81 20 -103 -4 -10 -11 -23 -20 -30 -20 -7 0 -20 9 -30 20
-23 25 -84 27 -108 3z"/>
<path d="M4179 715 c-67 -36 -81 -166 -24 -225 26 -27 35 -30 90 -30 51 0 65
4 83 23 12 13 22 29 22 35 0 20 -21 14 -46 -13 -17 -19 -33 -25 -63 -25 -50 0
-81 29 -81 77 l0 33 101 0 102 0 -6 36 c-12 70 -51 104 -120 104 -18 -1 -43
-7 -58 -15z m116 -40 c45 -44 35 -55 -55 -55 -65 0 -80 3 -80 15 0 27 47 65
80 65 19 0 40 -9 55 -25z"/>
<path d="M4502 715 c-18 -13 -27 -14 -35 -6 -6 6 -15 11 -19 11 -4 0 -8 -58
-8 -130 0 -71 4 -130 9 -130 5 0 12 44 16 98 8 122 20 142 79 142 24 0 48 -6
54 -13 6 -6 14 -60 18 -120 3 -59 11 -107 15 -107 15 0 11 224 -4 244 -19 26
-95 32 -125 11z"/>
<path d="M4924 711 c-67 -41 -73 -163 -12 -228 31 -34 125 -33 165 1 25 21 28
31 31 100 4 75 4 76 -31 111 -29 29 -42 35 -78 35 -26 0 -57 -8 -75 -19z m120
-30 c24 -27 36 -84 26 -127 -10 -45 -26 -62 -67 -70 -27 -5 -37 -1 -64 25 -30
30 -31 35 -27 93 4 48 9 65 27 79 30 25 83 24 105 0z"/>
<path d="M5364 696 c-32 -32 -34 -37 -34 -106 0 -66 2 -74 29 -101 26 -26 36
-29 91 -29 53 0 64 3 85 26 14 15 25 31 25 35 0 17 -23 9 -46 -16 -30 -32 -94
-35 -124 -5 -19 19 -37 67 -28 76 3 2 49 7 103 11 l97 6 -5 41 c-8 59 -52 96
-113 96 -39 0 -51 -5 -80 -34z m134 -16 c12 -12 22 -30 22 -40 0 -18 -7 -20
-75 -20 -68 0 -75 2 -75 20 0 29 39 60 75 60 18 0 41 -9 53 -20z"/>
<path d="M6192 714 c-34 -24 -52 -68 -52 -128 0 -48 4 -60 31 -91 29 -33 34
-35 94 -35 57 0 66 3 84 26 37 48 16 63 -25 19 -48 -52 -144 -23 -144 44 0 27
3 29 53 35 28 3 74 6 101 6 l48 0 -7 36 c-8 48 -32 83 -62 95 -37 14 -96 11
-121 -7z m120 -31 c9 -10 19 -28 22 -40 7 -23 6 -23 -73 -23 -89 0 -97 7 -60
54 25 32 87 37 111 9z"/>
<path d="M6516 712 c-22 -13 -30 -14 -33 -4 -3 6 -9 12 -14 12 -5 0 -9 -58 -9
-130 0 -71 4 -130 9 -130 5 0 12 44 16 98 8 119 20 142 75 142 21 0 41 -4 45
-9 3 -6 8 -60 12 -120 4 -77 10 -111 18 -111 9 0 15 33 20 102 9 129 13 138
70 138 24 0 46 -4 50 -9 3 -6 8 -60 12 -120 3 -61 9 -111 13 -111 11 0 23 164
15 202 -4 18 -14 41 -23 51 -20 23 -73 22 -105 -3 -14 -11 -28 -20 -31 -20 -3
0 -15 9 -26 20 -25 25 -75 26 -114 2z"/>
<path d="M7466 709 c-30 -24 -34 -63 -9 -91 9 -10 47 -27 85 -38 63 -19 68
-23 68 -48 0 -40 -17 -52 -72 -52 -40 0 -50 4 -64 25 -16 25 -44 34 -44 15 0
-6 11 -22 25 -35 20 -21 34 -25 83 -25 69 0 102 25 102 78 0 37 -11 45 -100
75 -61 21 -65 24 -65 52 0 30 1 30 58 33 44 2 59 0 63 -12 6 -16 34 -23 34 -8
-1 48 -114 70 -164 31z"/>
<path d="M7920 723 c-24 -9 -50 -35 -50 -50 0 -20 24 -16 38 7 11 18 21 21 70
18 l57 -3 3 -37 c3 -41 12 -36 -97 -58 -71 -14 -81 -23 -81 -76 0 -33 5 -46
19 -54 26 -13 107 -13 133 1 15 8 27 8 44 -2 13 -7 26 -10 28 -8 2 2 1 55 -3
117 -6 103 -8 116 -30 133 -23 19 -95 25 -131 12z m120 -163 c0 -66 -92 -107
-134 -61 -36 40 -6 67 94 84 14 2 28 5 33 6 4 0 7 -13 7 -29z"/>
<path d="M8228 713 c-14 -13 -20 -14 -30 -5 -7 7 -16 12 -20 12 -4 0 -8 -58
-8 -130 0 -71 4 -130 9 -130 5 0 12 37 16 83 10 126 19 146 66 153 23 4 38 12
36 18 -6 18 -51 18 -69 -1z"/>
<path d="M2270 590 c0 -80 4 -130 10 -130 6 0 10 50 10 130 0 80 -4 130 -10
130 -6 0 -10 -50 -10 -130z"/>
<path d="M2660 590 c0 -109 2 -130 15 -130 13 0 15 21 15 130 0 109 -2 130
-15 130 -13 0 -15 -21 -15 -130z"/>
<path d="M6890 590 c0 -6 27 -10 60 -10 33 0 60 4 60 10 0 6 -27 10 -60 10
-33 0 -60 -4 -60 -10z"/>
</g>
</svg>
